{
	"asset":{
		"generator":"Khronos glTF Blender I/O v4.0.44",
		"version":"2.0"
	},
	"extensionsUsed":[
		"KHR_materials_unlit"
	],
	"scene":0,
	"scenes":[
		{
			"name":"Scene",
			"nodes":[
				21
			]
		}
	],
	"nodes":[
		{
			"name":"Liron.Atlas_45"
		},
		{
			"name":"Beak_35",
			"rotation":[
				0.7297900319099426,
				-1.3113676686771214e-06,
				-2.5735737381182844e-06,
				0.6836713552474976
			],
			"scale":[
				1,
				1.0000001192092896,
				1.0000001192092896
			],
			"translation":[
				1.4290933449956356e-06,
				0.5882416367530823,
				0.8393957018852234
			]
		},
		{
			"name":"Eyes_36",
			"rotation":[
				-0.06023304536938667,
				1.3793629571878796e-09,
				9.679173018639631e-08,
				0.998184323310852
			],
			"translation":[
				6.52631456432573e-07,
				0.5333002209663391,
				0.3566208481788635
			]
		},
		{
			"name":"Cap_37",
			"rotation":[
				-0.18047919869422913,
				-8.30786217598245e-10,
				2.904230029798782e-07,
				0.9835788011550903
			],
			"translation":[
				-8.422057362622581e-08,
				1.2412790060043335,
				-0.10152596980333328
			]
		},
		{
			"children":[
				1,
				2,
				3
			],
			"name":"Head.001_38",
			"rotation":[
				-0.6493881940841675,
				9.666972573540988e-07,
				1.869916786745307e-06,
				0.7604571580886841
			],
			"scale":[
				0.9999999403953552,
				0.9999999403953552,
				0.9999999403953552
			],
			"translation":[
				-1.0936607395706233e-05,
				1.726998209953308,
				-2.679471492767334
			]
		},
		{
			"name":"Feathers_39",
			"rotation":[
				-0.977706789970398,
				1.6702357186204608e-07,
				3.280537612226908e-06,
				0.20997488498687744
			],
			"scale":[
				0.9999999403953552,
				0.9999999403953552,
				0.999999463558197
			],
			"translation":[
				-9.974423846870195e-07,
				-0.38295382261276245,
				-0.2848890423774719
			]
		},
		{
			"name":"Feet.L_40",
			"rotation":[
				-0.628447949886322,
				0.04216837137937546,
				0.041837550699710846,
				0.7755802273750305
			],
			"scale":[
				1,
				1.0000001192092896,
				1
			],
			"translation":[
				3.2922253012657166e-07,
				1.0863169431686401,
				-4.330649971961975e-07
			]
		},
		{
			"children":[
				6
			],
			"name":"Leg.L_41",
			"rotation":[
				0.6923205256462097,
				-0.004522175993770361,
				0.0058265202678740025,
				0.7215524911880493
			],
			"scale":[
				0.9999998807907104,
				1,
				0.9999999403953552
			],
			"translation":[
				-0.5964533686637878,
				0.7135921716690063,
				1.2929129600524902
			]
		},
		{
			"name":"Feet.R_42",
			"rotation":[
				-0.6284347176551819,
				-0.04431138560175896,
				-0.04203872010111809,
				0.7754606008529663
			],
			"scale":[
				1,
				0.9999999403953552,
				0.9999999403953552
			],
			"translation":[
				1.9036815501749516e-07,
				1.0863168239593506,
				4.246830940246582e-07
			]
		},
		{
			"children":[
				8
			],
			"name":"Leg.R_43",
			"rotation":[
				0.6923285126686096,
				0.005637632217258215,
				-0.00476206187158823,
				0.7215446829795837
			],
			"scale":[
				0.9999998807907104,
				1,
				0.9999998807907104
			],
			"translation":[
				0.5964649319648743,
				0.7135921716690063,
				1.292907953262329
			]
		},
		{
			"children":[
				4,
				5,
				7,
				9
			],
			"name":"BodyBase_44",
			"rotation":[
				0.6777997016906738,
				-1.5384939615614712e-06,
				-1.3950653965366655e-06,
				0.7352466583251953
			],
			"scale":[
				0.9999999403953552,
				0.9999999403953552,
				0.9999999403953552
			],
			"translation":[
				0.005957200191915035,
				1.0658349990844727,
				-0.1514795571565628
			]
		},
		{
			"children":[
				10
			],
			"name":"GLTF_created_0_rootJoint",
			"rotation":[
				-8.557137221032463e-09,
				1.7114274442064925e-08,
				-2.928983550974819e-16,
				1
			],
			"scale":[
				0.9999999403953552,
				0.9999999403953552,
				0.9999999403953552
			],
			"translation":[
				4.76837158203125e-07,
				4.76837158203125e-07,
				0
			]
		},
		{
			"mesh":0,
			"name":"Object_12",
			"skin":0
		},
		{
			"mesh":1,
			"name":"Object_13",
			"skin":0
		},
		{
			"name":"Shuba_Mesh_46"
		},
		{
			"children":[
				0,
				12,
				13,
				14,
				11
			],
			"name":"GLTF_created_0"
		},
		{
			"children":[
				15
			],
			"name":"Armature_47",
			"scale":[
				0.42026427388191223,
				0.42026424407958984,
				0.42026424407958984
			],
			"translation":[
				-2.6323442459106445,
				2.7536914348602295,
				-0.8387851119041443
			]
		},
		{
			"mesh":2,
			"name":"Object_4"
		},
		{
			"children":[
				17
			],
			"name":"Shadow_1",
			"rotation":[
				0,
				0.027486499398946762,
				0,
				0.9996222853660583
			],
			"scale":[
				1.0509721040725708,
				1.0331536531448364,
				0.6087762117385864
			],
			"translation":[
				-2.6593098640441895,
				0.001075863721780479,
				-0.24914878606796265
			]
		},
		{
			"children":[
				16,
				18
			],
			"name":"GLTF_SceneRootNode",
			"rotation":[
				0.70710688829422,
				0,
				0,
				0.7071066498756409
			]
		},
		{
			"children":[
				19
			],
			"name":"root"
		},
		{
			"children":[
				20
			],
			"name":"Sketchfab_model",
			"rotation":[
				-0.70710688829422,
				0,
				0,
				0.7071066498756409
			],
			"scale":[
				0.3981361985206604,
				0.3981362581253052,
				0.3981362581253052
			]
		}
	],
	"animations":[
		{
			"channels":[
				{
					"sampler":0,
					"target":{
						"node":11,
						"path":"translation"
					}
				},
				{
					"sampler":1,
					"target":{
						"node":11,
						"path":"rotation"
					}
				},
				{
					"sampler":2,
					"target":{
						"node":11,
						"path":"scale"
					}
				},
				{
					"sampler":3,
					"target":{
						"node":10,
						"path":"translation"
					}
				},
				{
					"sampler":4,
					"target":{
						"node":10,
						"path":"rotation"
					}
				},
				{
					"sampler":5,
					"target":{
						"node":10,
						"path":"scale"
					}
				},
				{
					"sampler":6,
					"target":{
						"node":4,
						"path":"translation"
					}
				},
				{
					"sampler":7,
					"target":{
						"node":4,
						"path":"rotation"
					}
				},
				{
					"sampler":8,
					"target":{
						"node":4,
						"path":"scale"
					}
				},
				{
					"sampler":9,
					"target":{
						"node":1,
						"path":"translation"
					}
				},
				{
					"sampler":10,
					"target":{
						"node":1,
						"path":"rotation"
					}
				},
				{
					"sampler":11,
					"target":{
						"node":1,
						"path":"scale"
					}
				},
				{
					"sampler":12,
					"target":{
						"node":2,
						"path":"translation"
					}
				},
				{
					"sampler":13,
					"target":{
						"node":2,
						"path":"rotation"
					}
				},
				{
					"sampler":14,
					"target":{
						"node":2,
						"path":"scale"
					}
				},
				{
					"sampler":15,
					"target":{
						"node":3,
						"path":"translation"
					}
				},
				{
					"sampler":16,
					"target":{
						"node":3,
						"path":"rotation"
					}
				},
				{
					"sampler":17,
					"target":{
						"node":3,
						"path":"scale"
					}
				},
				{
					"sampler":18,
					"target":{
						"node":5,
						"path":"translation"
					}
				},
				{
					"sampler":19,
					"target":{
						"node":5,
						"path":"rotation"
					}
				},
				{
					"sampler":20,
					"target":{
						"node":5,
						"path":"scale"
					}
				},
				{
					"sampler":21,
					"target":{
						"node":7,
						"path":"translation"
					}
				},
				{
					"sampler":22,
					"target":{
						"node":7,
						"path":"rotation"
					}
				},
				{
					"sampler":23,
					"target":{
						"node":7,
						"path":"scale"
					}
				},
				{
					"sampler":24,
					"target":{
						"node":6,
						"path":"translation"
					}
				},
				{
					"sampler":25,
					"target":{
						"node":6,
						"path":"rotation"
					}
				},
				{
					"sampler":26,
					"target":{
						"node":6,
						"path":"scale"
					}
				},
				{
					"sampler":27,
					"target":{
						"node":9,
						"path":"translation"
					}
				},
				{
					"sampler":28,
					"target":{
						"node":9,
						"path":"rotation"
					}
				},
				{
					"sampler":29,
					"target":{
						"node":9,
						"path":"scale"
					}
				},
				{
					"sampler":30,
					"target":{
						"node":8,
						"path":"translation"
					}
				},
				{
					"sampler":31,
					"target":{
						"node":8,
						"path":"rotation"
					}
				},
				{
					"sampler":32,
					"target":{
						"node":8,
						"path":"scale"
					}
				}
			],
			"name":"LironShuba",
			"samplers":[
				{
					"input":18,
					"interpolation":"STEP",
					"output":19
				},
				{
					"input":18,
					"interpolation":"STEP",
					"output":20
				},
				{
					"input":18,
					"interpolation":"STEP",
					"output":21
				},
				{
					"input":22,
					"interpolation":"LINEAR",
					"output":23
				},
				{
					"input":22,
					"interpolation":"LINEAR",
					"output":24
				},
				{
					"input":22,
					"interpolation":"LINEAR",
					"output":25
				},
				{
					"input":22,
					"interpolation":"LINEAR",
					"output":26
				},
				{
					"input":22,
					"interpolation":"LINEAR",
					"output":27
				},
				{
					"input":22,
					"interpolation":"LINEAR",
					"output":28
				},
				{
					"input":22,
					"interpolation":"LINEAR",
					"output":29
				},
				{
					"input":22,
					"interpolation":"LINEAR",
					"output":30
				},
				{
					"input":18,
					"interpolation":"LINEAR",
					"output":31
				},
				{
					"input":22,
					"interpolation":"LINEAR",
					"output":32
				},
				{
					"input":18,
					"interpolation":"LINEAR",
					"output":33
				},
				{
					"input":22,
					"interpolation":"LINEAR",
					"output":34
				},
				{
					"input":22,
					"interpolation":"LINEAR",
					"output":35
				},
				{
					"input":22,
					"interpolation":"LINEAR",
					"output":36
				},
				{
					"input":18,
					"interpolation":"LINEAR",
					"output":37
				},
				{
					"input":22,
					"interpolation":"LINEAR",
					"output":38
				},
				{
					"input":22,
					"interpolation":"LINEAR",
					"output":39
				},
				{
					"input":18,
					"interpolation":"LINEAR",
					"output":40
				},
				{
					"input":22,
					"interpolation":"LINEAR",
					"output":41
				},
				{
					"input":22,
					"interpolation":"LINEAR",
					"output":42
				},
				{
					"input":22,
					"interpolation":"LINEAR",
					"output":43
				},
				{
					"input":18,
					"interpolation":"LINEAR",
					"output":44
				},
				{
					"input":22,
					"interpolation":"LINEAR",
					"output":45
				},
				{
					"input":18,
					"interpolation":"STEP",
					"output":46
				},
				{
					"input":22,
					"interpolation":"LINEAR",
					"output":47
				},
				{
					"input":22,
					"interpolation":"LINEAR",
					"output":48
				},
				{
					"input":22,
					"interpolation":"LINEAR",
					"output":49
				},
				{
					"input":18,
					"interpolation":"LINEAR",
					"output":50
				},
				{
					"input":22,
					"interpolation":"LINEAR",
					"output":51
				},
				{
					"input":18,
					"interpolation":"LINEAR",
					"output":52
				}
			]
		}
	],
	"materials":[
		{
			"doubleSided":true,
			"extensions":{
				"KHR_materials_unlit":{}
			},
			"name":"Shuba",
			"pbrMetallicRoughness":{
				"baseColorTexture":{
					"index":0
				},
				"metallicFactor":0,
				"roughnessFactor":0.9
			}
		},
		{
			"extensions":{
				"KHR_materials_unlit":{}
			},
			"name":"Outline",
			"pbrMetallicRoughness":{
				"baseColorFactor":[
					0,
					0,
					0,
					1
				],
				"metallicFactor":0,
				"roughnessFactor":0.9
			}
		},
		{
			"alphaMode":"BLEND",
			"extensions":{
				"KHR_materials_unlit":{}
			},
			"name":"Outline.001",
			"pbrMetallicRoughness":{
				"baseColorFactor":[
					0.1282390058040619,
					0.1282390058040619,
					0.1282390058040619,
					0.5975670218467712
				],
				"metallicFactor":0,
				"roughnessFactor":0.9
			}
		}
	],
	"meshes":[
		{
			"name":"Object_3",
			"primitives":[
				{
					"attributes":{
						"POSITION":0,
						"NORMAL":1,
						"TEXCOORD_0":2,
						"TEXCOORD_1":3,
						"JOINTS_0":4,
						"WEIGHTS_0":5
					},
					"indices":6,
					"material":0
				}
			]
		},
		{
			"name":"Object_4",
			"primitives":[
				{
					"attributes":{
						"POSITION":8,
						"NORMAL":9,
						"TEXCOORD_0":10,
						"JOINTS_0":11,
						"WEIGHTS_0":12
					},
					"indices":13,
					"material":1
				}
			]
		},
		{
			"name":"Object_0",
			"primitives":[
				{
					"attributes":{
						"POSITION":14,
						"NORMAL":15,
						"TEXCOORD_0":16
					},
					"indices":17,
					"material":2
				}
			]
		}
	],
	"textures":[
		{
			"sampler":0,
			"source":0
		}
	],
	"images":[
		{
			"mimeType":"image/png",
			"name":"Shuba_baseColor",
			"uri":"texture/Shuba_baseColor.png"
		}
	],
	"skins":[
		{
			"inverseBindMatrices":7,
			"joints":[
				11,
				10,
				4,
				1,
				2,
				3,
				5,
				7,
				6,
				9,
				8
			],
			"name":"GLTF_created_0"
		}
	],
	"accessors":[
		{
			"bufferView":0,
			"componentType":5126,
			"count":6590,
			"max":[
				-0.7597717642784119,
				2.088078498840332,
				0.21835999190807343
			],
			"min":[
				-1.334297776222229,
				0.8688165545463562,
				-0.7045689821243286
			],
			"type":"VEC3"
		},
		{
			"bufferView":1,
			"componentType":5126,
			"count":6590,
			"type":"VEC3"
		},
		{
			"bufferView":2,
			"componentType":5126,
			"count":6590,
			"type":"VEC2"
		},
		{
			"bufferView":3,
			"componentType":5126,
			"count":6590,
			"type":"VEC2"
		},
		{
			"bufferView":4,
			"componentType":5121,
			"count":6590,
			"type":"VEC4"
		},
		{
			"bufferView":5,
			"componentType":5126,
			"count":6590,
			"type":"VEC4"
		},
		{
			"bufferView":6,
			"componentType":5123,
			"count":36609,
			"type":"SCALAR"
		},
		{
			"bufferView":7,
			"componentType":5126,
			"count":11,
			"type":"MAT4"
		},
		{
			"bufferView":8,
			"componentType":5126,
			"count":6589,
			"max":[
				-0.7400519251823425,
				2.0982141494750977,
				0.2332790046930313
			],
			"min":[
				-1.3540176153182983,
				0.8545020818710327,
				-0.7232807874679565
			],
			"type":"VEC3"
		},
		{
			"bufferView":9,
			"componentType":5126,
			"count":6589,
			"type":"VEC3"
		},
		{
			"bufferView":10,
			"componentType":5126,
			"count":6589,
			"type":"VEC2"
		},
		{
			"bufferView":11,
			"componentType":5121,
			"count":6589,
			"type":"VEC4"
		},
		{
			"bufferView":12,
			"componentType":5126,
			"count":6589,
			"type":"VEC4"
		},
		{
			"bufferView":13,
			"componentType":5123,
			"count":36609,
			"type":"SCALAR"
		},
		{
			"bufferView":14,
			"componentType":5126,
			"count":32,
			"max":[
				3.5397043228149414,
				0,
				1.834803819656372
			],
			"min":[
				1.5397043228149414,
				0,
				0.1746780276298523
			],
			"type":"VEC3"
		},
		{
			"bufferView":15,
			"componentType":5126,
			"count":32,
			"type":"VEC3"
		},
		{
			"bufferView":16,
			"componentType":5126,
			"count":32,
			"type":"VEC2"
		},
		{
			"bufferView":17,
			"componentType":5123,
			"count":90,
			"type":"SCALAR"
		},
		{
			"bufferView":18,
			"componentType":5126,
			"count":2,
			"max":[
				5.583333333333333
			],
			"min":[
				0
			],
			"type":"SCALAR"
		},
		{
			"bufferView":19,
			"componentType":5126,
			"count":2,
			"type":"VEC3"
		},
		{
			"bufferView":20,
			"componentType":5126,
			"count":2,
			"type":"VEC4"
		},
		{
			"bufferView":21,
			"componentType":5126,
			"count":2,
			"type":"VEC3"
		},
		{
			"bufferView":22,
			"componentType":5126,
			"count":135,
			"max":[
				5.583333333333333
			],
			"min":[
				0
			],
			"type":"SCALAR"
		},
		{
			"bufferView":23,
			"componentType":5126,
			"count":135,
			"type":"VEC3"
		},
		{
			"bufferView":24,
			"componentType":5126,
			"count":135,
			"type":"VEC4"
		},
		{
			"bufferView":25,
			"componentType":5126,
			"count":135,
			"type":"VEC3"
		},
		{
			"bufferView":26,
			"componentType":5126,
			"count":135,
			"type":"VEC3"
		},
		{
			"bufferView":27,
			"componentType":5126,
			"count":135,
			"type":"VEC4"
		},
		{
			"bufferView":28,
			"componentType":5126,
			"count":135,
			"type":"VEC3"
		},
		{
			"bufferView":29,
			"componentType":5126,
			"count":135,
			"type":"VEC3"
		},
		{
			"bufferView":30,
			"componentType":5126,
			"count":135,
			"type":"VEC4"
		},
		{
			"bufferView":31,
			"componentType":5126,
			"count":2,
			"type":"VEC3"
		},
		{
			"bufferView":32,
			"componentType":5126,
			"count":135,
			"type":"VEC3"
		},
		{
			"bufferView":33,
			"componentType":5126,
			"count":2,
			"type":"VEC4"
		},
		{
			"bufferView":34,
			"componentType":5126,
			"count":135,
			"type":"VEC3"
		},
		{
			"bufferView":35,
			"componentType":5126,
			"count":135,
			"type":"VEC3"
		},
		{
			"bufferView":36,
			"componentType":5126,
			"count":135,
			"type":"VEC4"
		},
		{
			"bufferView":37,
			"componentType":5126,
			"count":2,
			"type":"VEC3"
		},
		{
			"bufferView":38,
			"componentType":5126,
			"count":135,
			"type":"VEC3"
		},
		{
			"bufferView":39,
			"componentType":5126,
			"count":135,
			"type":"VEC4"
		},
		{
			"bufferView":40,
			"componentType":5126,
			"count":2,
			"type":"VEC3"
		},
		{
			"bufferView":41,
			"componentType":5126,
			"count":135,
			"type":"VEC3"
		},
		{
			"bufferView":42,
			"componentType":5126,
			"count":135,
			"type":"VEC4"
		},
		{
			"bufferView":43,
			"componentType":5126,
			"count":135,
			"type":"VEC3"
		},
		{
			"bufferView":44,
			"componentType":5126,
			"count":2,
			"type":"VEC3"
		},
		{
			"bufferView":45,
			"componentType":5126,
			"count":135,
			"type":"VEC4"
		},
		{
			"bufferView":46,
			"componentType":5126,
			"count":2,
			"type":"VEC3"
		},
		{
			"bufferView":47,
			"componentType":5126,
			"count":135,
			"type":"VEC3"
		},
		{
			"bufferView":48,
			"componentType":5126,
			"count":135,
			"type":"VEC4"
		},
		{
			"bufferView":49,
			"componentType":5126,
			"count":135,
			"type":"VEC3"
		},
		{
			"bufferView":50,
			"componentType":5126,
			"count":2,
			"type":"VEC3"
		},
		{
			"bufferView":51,
			"componentType":5126,
			"count":135,
			"type":"VEC4"
		},
		{
			"bufferView":52,
			"componentType":5126,
			"count":2,
			"type":"VEC3"
		}
	],
	"bufferViews":[
		{
			"buffer":0,
			"byteLength":79080,
			"byteOffset":0,
			"target":34962
		},
		{
			"buffer":0,
			"byteLength":79080,
			"byteOffset":79080,
			"target":34962
		},
		{
			"buffer":0,
			"byteLength":52720,
			"byteOffset":158160,
			"target":34962
		},
		{
			"buffer":0,
			"byteLength":52720,
			"byteOffset":210880,
			"target":34962
		},
		{
			"buffer":0,
			"byteLength":26360,
			"byteOffset":263600,
			"target":34962
		},
		{
			"buffer":0,
			"byteLength":105440,
			"byteOffset":289960,
			"target":34962
		},
		{
			"buffer":0,
			"byteLength":73218,
			"byteOffset":395400,
			"target":34963
		},
		{
			"buffer":0,
			"byteLength":704,
			"byteOffset":468620
		},
		{
			"buffer":0,
			"byteLength":79068,
			"byteOffset":469324,
			"target":34962
		},
		{
			"buffer":0,
			"byteLength":79068,
			"byteOffset":548392,
			"target":34962
		},
		{
			"buffer":0,
			"byteLength":52712,
			"byteOffset":627460,
			"target":34962
		},
		{
			"buffer":0,
			"byteLength":26356,
			"byteOffset":680172,
			"target":34962
		},
		{
			"buffer":0,
			"byteLength":105424,
			"byteOffset":706528,
			"target":34962
		},
		{
			"buffer":0,
			"byteLength":73218,
			"byteOffset":811952,
			"target":34963
		},
		{
			"buffer":0,
			"byteLength":384,
			"byteOffset":885172,
			"target":34962
		},
		{
			"buffer":0,
			"byteLength":384,
			"byteOffset":885556,
			"target":34962
		},
		{
			"buffer":0,
			"byteLength":256,
			"byteOffset":885940,
			"target":34962
		},
		{
			"buffer":0,
			"byteLength":180,
			"byteOffset":886196,
			"target":34963
		},
		{
			"buffer":0,
			"byteLength":8,
			"byteOffset":886376
		},
		{
			"buffer":0,
			"byteLength":24,
			"byteOffset":886384
		},
		{
			"buffer":0,
			"byteLength":32,
			"byteOffset":886408
		},
		{
			"buffer":0,
			"byteLength":24,
			"byteOffset":886440
		},
		{
			"buffer":0,
			"byteLength":540,
			"byteOffset":886464
		},
		{
			"buffer":0,
			"byteLength":1620,
			"byteOffset":887004
		},
		{
			"buffer":0,
			"byteLength":2160,
			"byteOffset":888624
		},
		{
			"buffer":0,
			"byteLength":1620,
			"byteOffset":890784
		},
		{
			"buffer":0,
			"byteLength":1620,
			"byteOffset":892404
		},
		{
			"buffer":0,
			"byteLength":2160,
			"byteOffset":894024
		},
		{
			"buffer":0,
			"byteLength":1620,
			"byteOffset":896184
		},
		{
			"buffer":0,
			"byteLength":1620,
			"byteOffset":897804
		},
		{
			"buffer":0,
			"byteLength":2160,
			"byteOffset":899424
		},
		{
			"buffer":0,
			"byteLength":24,
			"byteOffset":901584
		},
		{
			"buffer":0,
			"byteLength":1620,
			"byteOffset":901608
		},
		{
			"buffer":0,
			"byteLength":32,
			"byteOffset":903228
		},
		{
			"buffer":0,
			"byteLength":1620,
			"byteOffset":903260
		},
		{
			"buffer":0,
			"byteLength":1620,
			"byteOffset":904880
		},
		{
			"buffer":0,
			"byteLength":2160,
			"byteOffset":906500
		},
		{
			"buffer":0,
			"byteLength":24,
			"byteOffset":908660
		},
		{
			"buffer":0,
			"byteLength":1620,
			"byteOffset":908684
		},
		{
			"buffer":0,
			"byteLength":2160,
			"byteOffset":910304
		},
		{
			"buffer":0,
			"byteLength":24,
			"byteOffset":912464
		},
		{
			"buffer":0,
			"byteLength":1620,
			"byteOffset":912488
		},
		{
			"buffer":0,
			"byteLength":2160,
			"byteOffset":914108
		},
		{
			"buffer":0,
			"byteLength":1620,
			"byteOffset":916268
		},
		{
			"buffer":0,
			"byteLength":24,
			"byteOffset":917888
		},
		{
			"buffer":0,
			"byteLength":2160,
			"byteOffset":917912
		},
		{
			"buffer":0,
			"byteLength":24,
			"byteOffset":920072
		},
		{
			"buffer":0,
			"byteLength":1620,
			"byteOffset":920096
		},
		{
			"buffer":0,
			"byteLength":2160,
			"byteOffset":921716
		},
		{
			"buffer":0,
			"byteLength":1620,
			"byteOffset":923876
		},
		{
			"buffer":0,
			"byteLength":24,
			"byteOffset":925496
		},
		{
			"buffer":0,
			"byteLength":2160,
			"byteOffset":925520
		},
		{
			"buffer":0,
			"byteLength":24,
			"byteOffset":927680
		}
	],
	"samplers":[
		{
			"magFilter":9729,
			"minFilter":9987
		}
	],
	"buffers":[
		{
			"byteLength":927704,
			"uri":"scene.bin"
		}
	]
}
